<svg xmlns="http://www.w3.org/2000/svg" width="1600" height="900" viewBox="0 0 1600 900"><defs>
  <radialGradient id="wat" cx="62%" cy="40%" r="85%"><stop offset="0%" stop-color="#2a93b3"/><stop offset="100%" stop-color="#14323f"/></radialGradient>
  <linearGradient id="pan" x1="0" y1="0" x2="0" y2="1"><stop offset="0%" stop-color="#243443"/><stop offset="100%" stop-color="#18222e"/></linearGradient>
  <filter id="sh" x="-20%" y="-20%" width="140%" height="140%"><feDropShadow dx="0" dy="4" stdDeviation="5" flood-color="#000" flood-opacity=".45"/></filter>
</defs>
  <rect width="1600" height="900" fill="url(#wat)"/><g stroke="#ffffff" stroke-width="1" opacity=".04"><line x1="56" y1="0" x2="56" y2="900"/><line x1="112" y1="0" x2="112" y2="900"/><line x1="168" y1="0" x2="168" y2="900"/><line x1="224" y1="0" x2="224" y2="900"/><line x1="280" y1="0" x2="280" y2="900"/><line x1="336" y1="0" x2="336" y2="900"/><line x1="392" y1="0" x2="392" y2="900"/><line x1="448" y1="0" x2="448" y2="900"/><line x1="504" y1="0" x2="504" y2="900"/><line x1="560" y1="0" x2="560" y2="900"/><line x1="616" y1="0" x2="616" y2="900"/><line x1="672" y1="0" x2="672" y2="900"/><line x1="728" y1="0" x2="728" y2="900"/><line x1="784" y1="0" x2="784" y2="900"/><line x1="840" y1="0" x2="840" y2="900"/><line x1="896" y1="0" x2="896" y2="900"/><line x1="952" y1="0" x2="952" y2="900"/><line x1="1008" y1="0" x2="1008" y2="900"/><line x1="1064" y1="0" x2="1064" y2="900"/><line x1="1120" y1="0" x2="1120" y2="900"/><line x1="1176" y1="0" x2="1176" y2="900"/><line x1="1232" y1="0" x2="1232" y2="900"/><line x1="1288" y1="0" x2="1288" y2="900"/><line x1="1344" y1="0" x2="1344" y2="900"/><line x1="1400" y1="0" x2="1400" y2="900"/><line x1="1456" y1="0" x2="1456" y2="900"/><line x1="1512" y1="0" x2="1512" y2="900"/><line x1="1568" y1="0" x2="1568" y2="900"/><line x1="0" y1="56" x2="1600" y2="56"/><line x1="0" y1="112" x2="1600" y2="112"/><line x1="0" y1="168" x2="1600" y2="168"/><line x1="0" y1="224" x2="1600" y2="224"/><line x1="0" y1="280" x2="1600" y2="280"/><line x1="0" y1="336" x2="1600" y2="336"/><line x1="0" y1="392" x2="1600" y2="392"/><line x1="0" y1="448" x2="1600" y2="448"/><line x1="0" y1="504" x2="1600" y2="504"/><line x1="0" y1="560" x2="1600" y2="560"/><line x1="0" y1="616" x2="1600" y2="616"/><line x1="0" y1="672" x2="1600" y2="672"/><line x1="0" y1="728" x2="1600" y2="728"/><line x1="0" y1="784" x2="1600" y2="784"/><line x1="0" y1="840" x2="1600" y2="840"/><line x1="0" y1="896" x2="1600" y2="896"/></g>
  <g transform="translate(1370 300) scale(0.9)">
    <ellipse cx="0" cy="120" rx="340" ry="70" fill="#000" opacity=".10"/>
    <ellipse cx="-150" cy="-30" rx="210" ry="140" fill="#e6d6a0"/><ellipse cx="140" cy="5" rx="225" ry="150" fill="#e6d6a0"/><ellipse cx="0" cy="75" rx="190" ry="120" fill="#e6d6a0"/><ellipse cx="-40" cy="-90" rx="150" ry="95" fill="#e6d6a0"/><ellipse cx="-150" cy="-30" rx="184" ry="118" fill="#5fa85b"/><ellipse cx="140" cy="5" rx="200" ry="128" fill="#5fa85b"/><ellipse cx="0" cy="72" rx="166" ry="100" fill="#5fa85b"/><ellipse cx="-40" cy="-90" rx="126" ry="76" fill="#5fa85b"/><ellipse cx="-120" cy="20" rx="40" ry="16" fill="#4d8f4a" opacity=".5"/><ellipse cx="60" cy="-30" rx="34" ry="14" fill="#4d8f4a" opacity=".5"/><ellipse cx="150" cy="60" rx="44" ry="18" fill="#4d8f4a" opacity=".5"/><ellipse cx="-10" cy="90" rx="30" ry="12" fill="#4d8f4a" opacity=".5"/><g transform="translate(-150 -44) scale(1.15)">
  <ellipse cx="0" cy="7" rx="12" ry="4.5" fill="#000" opacity=".18"/>
  <rect x="-3.2" y="-2" width="6.4" height="13" rx="2.5" fill="#6b4a2a"/>
  <circle cx="0" cy="-9" r="16" fill="#2f6b34"/><circle cx="-5.5" cy="-13" r="12" fill="#3c8043"/>
  <circle cx="4.5" cy="-15" r="8.5" fill="#49934f"/><circle cx="-8" cy="-16" r="4" fill="#fff" opacity=".12"/></g><g transform="translate(-92 -78) scale(1)">
  <ellipse cx="0" cy="7" rx="12" ry="4.5" fill="#000" opacity=".18"/>
  <rect x="-3.2" y="-2" width="6.4" height="13" rx="2.5" fill="#6b4a2a"/>
  <circle cx="0" cy="-9" r="16" fill="#2f6b34"/><circle cx="-5.5" cy="-13" r="12" fill="#3c8043"/>
  <circle cx="4.5" cy="-15" r="8.5" fill="#49934f"/><circle cx="-8" cy="-16" r="4" fill="#fff" opacity=".12"/></g><g transform="translate(-186 12) scale(1.05)">
  <ellipse cx="0" cy="7" rx="12" ry="4.5" fill="#000" opacity=".18"/>
  <rect x="-3.2" y="-2" width="6.4" height="13" rx="2.5" fill="#6b4a2a"/>
  <circle cx="0" cy="-9" r="16" fill="#2f6b34"/><circle cx="-5.5" cy="-13" r="12" fill="#3c8043"/>
  <circle cx="4.5" cy="-15" r="8.5" fill="#49934f"/><circle cx="-8" cy="-16" r="4" fill="#fff" opacity=".12"/></g><g transform="translate(-120 64) scale(1.1)">
  <ellipse cx="0" cy="7" rx="12" ry="4.5" fill="#000" opacity=".18"/>
  <rect x="-3.2" y="-2" width="6.4" height="13" rx="2.5" fill="#6b4a2a"/>
  <circle cx="0" cy="-9" r="16" fill="#2f6b34"/><circle cx="-5.5" cy="-13" r="12" fill="#3c8043"/>
  <circle cx="4.5" cy="-15" r="8.5" fill="#49934f"/><circle cx="-8" cy="-16" r="4" fill="#fff" opacity=".12"/></g><g transform="translate(-44 -110) scale(0.95)">
  <ellipse cx="0" cy="7" rx="12" ry="4.5" fill="#000" opacity=".18"/>
  <rect x="-3.2" y="-2" width="6.4" height="13" rx="2.5" fill="#6b4a2a"/>
  <circle cx="0" cy="-9" r="16" fill="#2f6b34"/><circle cx="-5.5" cy="-13" r="12" fill="#3c8043"/>
  <circle cx="4.5" cy="-15" r="8.5" fill="#49934f"/><circle cx="-8" cy="-16" r="4" fill="#fff" opacity=".12"/></g><g transform="translate(36 -70) scale(1.05)">
  <ellipse cx="0" cy="7" rx="12" ry="4.5" fill="#000" opacity=".18"/>
  <rect x="-3.2" y="-2" width="6.4" height="13" rx="2.5" fill="#6b4a2a"/>
  <circle cx="0" cy="-9" r="16" fill="#2f6b34"/><circle cx="-5.5" cy="-13" r="12" fill="#3c8043"/>
  <circle cx="4.5" cy="-15" r="8.5" fill="#49934f"/><circle cx="-8" cy="-16" r="4" fill="#fff" opacity=".12"/></g><g transform="translate(200 -30) scale(1)">
  <ellipse cx="0" cy="7" rx="12" ry="4.5" fill="#000" opacity=".18"/>
  <rect x="-3.2" y="-2" width="6.4" height="13" rx="2.5" fill="#6b4a2a"/>
  <circle cx="0" cy="-9" r="16" fill="#2f6b34"/><circle cx="-5.5" cy="-13" r="12" fill="#3c8043"/>
  <circle cx="4.5" cy="-15" r="8.5" fill="#49934f"/><circle cx="-8" cy="-16" r="4" fill="#fff" opacity=".12"/></g><g transform="translate(244 46) scale(1.1)">
  <ellipse cx="0" cy="7" rx="12" ry="4.5" fill="#000" opacity=".18"/>
  <rect x="-3.2" y="-2" width="6.4" height="13" rx="2.5" fill="#6b4a2a"/>
  <circle cx="0" cy="-9" r="16" fill="#2f6b34"/><circle cx="-5.5" cy="-13" r="12" fill="#3c8043"/>
  <circle cx="4.5" cy="-15" r="8.5" fill="#49934f"/><circle cx="-8" cy="-16" r="4" fill="#fff" opacity=".12"/></g><g transform="translate(60 96) scale(1.05)">
  <ellipse cx="0" cy="7" rx="12" ry="4.5" fill="#000" opacity=".18"/>
  <rect x="-3.2" y="-2" width="6.4" height="13" rx="2.5" fill="#6b4a2a"/>
  <circle cx="0" cy="-9" r="16" fill="#2f6b34"/><circle cx="-5.5" cy="-13" r="12" fill="#3c8043"/>
  <circle cx="4.5" cy="-15" r="8.5" fill="#49934f"/><circle cx="-8" cy="-16" r="4" fill="#fff" opacity=".12"/></g><g transform="translate(-30 40) scale(1)">
  <ellipse cx="0" cy="7" rx="12" ry="4.5" fill="#000" opacity=".18"/>
  <rect x="-3.2" y="-2" width="6.4" height="13" rx="2.5" fill="#6b4a2a"/>
  <circle cx="0" cy="-9" r="16" fill="#2f6b34"/><circle cx="-5.5" cy="-13" r="12" fill="#3c8043"/>
  <circle cx="4.5" cy="-15" r="8.5" fill="#49934f"/><circle cx="-8" cy="-16" r="4" fill="#fff" opacity=".12"/></g><g transform="translate(170 -72) scale(0.95)">
  <ellipse cx="0" cy="7" rx="12" ry="4.5" fill="#000" opacity=".18"/>
  <rect x="-3.2" y="-2" width="6.4" height="13" rx="2.5" fill="#6b4a2a"/>
  <circle cx="0" cy="-9" r="16" fill="#2f6b34"/><circle cx="-5.5" cy="-13" r="12" fill="#3c8043"/>
  <circle cx="4.5" cy="-15" r="8.5" fill="#49934f"/><circle cx="-8" cy="-16" r="4" fill="#fff" opacity=".12"/></g><g transform="translate(120 38)"><rect x="-44" y="-44" width="88" height="88" rx="6" fill="#f4cf57" opacity=".14"/>
    <rect x="-44" y="-44" width="88" height="88" rx="6" fill="none" stroke="#f4cf57" stroke-width="3.5" stroke-dasharray="11 8"/>
    <g transform="translate(120 4) scale(1)">
  <ellipse cx="0" cy="16" rx="22" ry="6" fill="#000" opacity=".18"/>
  <rect x="-19" y="-3" width="38" height="21" rx="2" fill="#7a4a2a"/>
  <rect x="-23" y="-16" width="46" height="13" fill="#c0392b"/>
  <rect x="-23" y="-16" width="4.7" height="13" fill="#f4f4f4"/><rect x="-13.6" y="-16" width="4.7" height="13" fill="#f4f4f4"/><rect x="-4.199999999999999" y="-16" width="4.7" height="13" fill="#f4f4f4"/><rect x="5.200000000000003" y="-16" width="4.7" height="13" fill="#f4f4f4"/><rect x="14.600000000000001" y="-16" width="4.7" height="13" fill="#f4f4f4"/>
  <rect x="-21" y="-16" width="3" height="35" fill="#5a3a22"/><rect x="18" y="-16" width="3" height="35" fill="#5a3a22"/></g></g><g transform="translate(150 86) scale(1.25)">
  <ellipse cx="0" cy="15" rx="13" ry="5" fill="#000" opacity=".22"/>
  <rect x="-9" y="-2" width="18" height="17" rx="2.5" fill="#3a6ea5"/>
  <rect x="-8" y="-18" width="16" height="16" rx="2.5" fill="#f0c89a"/>
  <rect x="-8" y="-18" width="16" height="6" fill="#5a3a22"/>
  <rect x="-4.5" y="-9" width="2.4" height="2.4" fill="#16202b"/><rect x="2.1" y="-9" width="2.4" height="2.4" fill="#16202b"/></g></g>
  <text x="70" y="138" font-family="'DejaVu Sans','Liberation Sans',sans-serif" font-weight="bold" font-size="25" letter-spacing="5" fill="#f4cf57">BROWSER MMO  ·  PLAY FREE  ·  NO DOWNLOAD</text>
  
  <g transform="translate(128 274.2) scale(2)">
  <path d="M-34 24 L-10 -22 L6 6 L20 -14 L40 24 Z" fill="#f4cf57"/>
  <path d="M-10 -22 L-3 -6 L-18 -6 Z" fill="#fff" opacity=".9"/>
  <path d="M20 -14 L26 -4 L13 -4 Z" fill="#fff" opacity=".75"/></g>
  <text x="223.12" y="280" font-family="'DejaVu Sans','Liberation Sans',sans-serif" font-weight="bold" font-size="116" letter-spacing="0.58">
    <tspan fill="#0c1118">RUNELANDS</tspan></text>
  <text x="221.38" y="276.52" font-family="'DejaVu Sans','Liberation Sans',sans-serif" font-weight="bold" font-size="116" letter-spacing="0.58" fill="#f4cf57">RUNELANDS</text>
  <text x="74" y="368" font-family="'DejaVu Sans','Liberation Sans',sans-serif" font-weight="bold" font-size="44" fill="#f3f7fb">Build · Fight · Trade · <tspan fill="#f4cf57">Own Land</tspan></text>
  <g transform="translate(78 426)"><circle cx="9" cy="-6" r="7" fill="#7fd99a"/><path d="M5 -6 l3 3 l6 -7" stroke="#15202b" stroke-width="2.4" fill="none" stroke-linecap="round" stroke-linejoin="round"/>
    <text x="34" y="0" font-family="'DejaVu Sans','Liberation Sans',sans-serif" font-size="28" fill="#f3f7fb">Chop wood, mine stone and fish the coast</text></g><g transform="translate(78 476)"><circle cx="9" cy="-6" r="7" fill="#7fd99a"/><path d="M5 -6 l3 3 l6 -7" stroke="#15202b" stroke-width="2.4" fill="none" stroke-linecap="round" stroke-linejoin="round"/>
    <text x="34" y="0" font-family="'DejaVu Sans','Liberation Sans',sans-serif" font-size="28" fill="#f3f7fb">Craft planks &amp; tools — upgrade your hero</text></g><g transform="translate(78 526)"><circle cx="9" cy="-6" r="7" fill="#7fd99a"/><path d="M5 -6 l3 3 l6 -7" stroke="#15202b" stroke-width="2.4" fill="none" stroke-linecap="round" stroke-linejoin="round"/>
    <text x="34" y="0" font-family="'DejaVu Sans','Liberation Sans',sans-serif" font-size="28" fill="#f3f7fb">Claim land plots that pay you passive rent</text></g><g transform="translate(78 576)"><circle cx="9" cy="-6" r="7" fill="#7fd99a"/><path d="M5 -6 l3 3 l6 -7" stroke="#15202b" stroke-width="2.4" fill="none" stroke-linecap="round" stroke-linejoin="round"/>
    <text x="34" y="0" font-family="'DejaVu Sans','Liberation Sans',sans-serif" font-size="28" fill="#f3f7fb">Survive monster hordes &amp; hunt the Warlord boss</text></g><g transform="translate(78 626)"><circle cx="9" cy="-6" r="7" fill="#7fd99a"/><path d="M5 -6 l3 3 l6 -7" stroke="#15202b" stroke-width="2.4" fill="none" stroke-linecap="round" stroke-linejoin="round"/>
    <text x="34" y="0" font-family="'DejaVu Sans','Liberation Sans',sans-serif" font-size="28" fill="#f3f7fb">Buy &amp; sell plots, top the leaderboard, daily rewards</text></g>
  <g>
  <rect x="78" y="690" width="86.08000000000001" height="42" rx="21" fill="#18222e" stroke="#f4cf57" stroke-width="2"/>
  <text x="121.04" y="718.56" text-anchor="middle" font-family="'DejaVu Sans','Liberation Sans',sans-serif" font-weight="bold" font-size="22" fill="#f4cf57" letter-spacing="1">MINE</text></g><g>
  <rect x="176.08" y="690" width="86.08000000000001" height="42" rx="21" fill="#18222e" stroke="#f4cf57" stroke-width="2"/>
  <text x="219.12" y="718.56" text-anchor="middle" font-family="'DejaVu Sans','Liberation Sans',sans-serif" font-weight="bold" font-size="22" fill="#f4cf57" letter-spacing="1">FISH</text></g><g>
  <rect x="274.16" y="690" width="100.60000000000001" height="42" rx="21" fill="#18222e" stroke="#f4cf57" stroke-width="2"/>
  <text x="324.46000000000004" y="718.56" text-anchor="middle" font-family="'DejaVu Sans','Liberation Sans',sans-serif" font-weight="bold" font-size="22" fill="#f4cf57" letter-spacing="1">CRAFT</text></g><g>
  <rect x="386.76000000000005" y="690" width="173.20000000000002" height="42" rx="21" fill="#18222e" stroke="#f4cf57" stroke-width="2"/>
  <text x="473.36000000000007" y="718.56" text-anchor="middle" font-family="'DejaVu Sans','Liberation Sans',sans-serif" font-weight="bold" font-size="22" fill="#f4cf57" letter-spacing="1">CLAIM LAND</text></g><g>
  <rect x="571.96" y="690" width="100.60000000000001" height="42" rx="21" fill="#18222e" stroke="#f4cf57" stroke-width="2"/>
  <text x="622.26" y="718.56" text-anchor="middle" font-family="'DejaVu Sans','Liberation Sans',sans-serif" font-weight="bold" font-size="22" fill="#f4cf57" letter-spacing="1">TRADE</text></g>
  <g>
  <rect x="78" y="754" width="540" height="76" rx="38" fill="#f4cf57" filter="url(#sh)"/>
  <text x="348" y="804.16" text-anchor="middle" font-family="'DejaVu Sans','Liberation Sans',sans-serif" font-weight="bold" font-size="34" fill="#15202b">PLAY FREE  →  runelands.fun</text></g>
  <text x="80" y="872" font-family="'DejaVu Sans','Liberation Sans',sans-serif" font-size="22" fill="#aebfce">Claim your plot of the island — a build · fight · trade MMO with an own-land economy.</text>
</svg>